<?xml version="1.0" encoding="utf-8"?>
<!-- Svg Vector Icons : http://www.onlinewebfonts.com/icon -->
<!DOCTYPE svg PUBLIC "-//W3C//DTD SVG 1.1//EN" "http://www.w3.org/Graphics/SVG/1.1/DTD/svg11.dtd">
<svg version="1.1" xmlns="http://www.w3.org/2000/svg" xmlns:xlink="http://www.w3.org/1999/xlink" x="0px" y="0px" viewBox="0 0 1000 1000" enable-background="new 0 0 1000 1000" xml:space="preserve">
<metadata> Svg Vector Icons : http://www.onlinewebfonts.com/icon </metadata>
<g><g transform="translate(0.000000,424.000000) scale(0.100000,-0.100000)"><path d="M2725.8,4111.8c-593.5-150.7-1006.1-639.8-1052.5-1247.2c-25.5-338.5,99.7-730.2,313-973.6l97.4-109h-431.2c-500.7,0-574.9-18.5-628.2-148.4c-53.3-125.2-51-2232.4,0-2343.7c44-90.4,106.6-125.2,243.4-132.1l104.3-7l11.6-2318.2c13.9-2598.7,0-2417.9,178.5-2466.6c122.9-34.8,6752.9-34.8,6875.8,0c178.5,48.7,164.6-132.1,178.5,2466.6L8628-849.1l104.3,7c136.8,7,199.4,41.7,243.4,132.1c51,111.3,53.3,2218.5,0,2343.7c-53.3,129.8-127.5,148.4-628.2,148.4h-431.2l97.4,109c213.3,243.4,338.4,635.2,312.9,973.6c-41.7,565.6-412.6,1040.9-943.5,1214.7c-238.8,78.8-632.9,78.8-850.8,0c-333.8-122.9-523.9-285.1-783.6-674.6c-201.7-303.7-521.6-927.3-693.1-1349.2c-23.2-62.6-48.7-111.3-55.6-111.3s-32.5,48.7-55.6,111.3c-171.5,421.9-491.5,1045.5-693.1,1349.2c-259.6,389.5-454.4,556.4-783.6,672.3C3279.9,4144.3,2918.3,4160.5,2725.8,4111.8z M3224.3,3625c129.8-20.9,296.7-111.3,398.7-213.3c146-148.4,350-484.5,577.2-945.8c118.2-241.1,231.8-479.9,252.7-526.2l34.8-88.1h-526.2c-577.2,0-989.9,39.4-1242.6,115.9C2528.8,2027.8,2341,2197,2246,2401c-55.6,118.2-62.6,162.3-62.6,366.3c0,204,6.9,248.1,62.6,364c122.9,264.3,384.8,466,656,505.4C3017.9,3655.1,3052.7,3652.8,3224.3,3625z M7234.8,3599.5c224.9-69.5,412.6-236.5,521.6-470.6c53.3-113.6,60.3-160,60.3-361.6c0-204-7-248.1-62.6-366.3c-83.4-176.2-273.5-361.6-428.9-417.3c-245.7-88.1-466-111.3-1149.8-125.2l-665.3-13.9l37.1,90.4c99.7,245.7,484.5,996.8,607.3,1180c166.9,255,273.6,366.3,421.9,440.5C6778.1,3657.5,6996,3671.4,7234.8,3599.5z M3840.9,460.7v-811.4H2670.2H1499.5v811.4V1272h1170.7h1170.7V460.7z M5672.3,460.7v-811.4H5000h-672.3v811.4V1272H5000h672.3V460.7z M8500.5,460.7v-811.4H7329.8H6159.1v811.4V1272h1170.7h1170.7V460.7z M3836.3-3000.4l4.6-2149h-985.2h-985.2v2139.7c0,1177.6,6.9,2149,16.2,2155.9c9.3,9.3,449.7,13.9,978.3,11.6l964.4-7L3836.3-3000.4z M5667.6-2998.1l4.6-2151.3H5000h-672.3v2139.7c0,1177.6,6.9,2149,16.2,2155.9c9.3,9.3,308.3,13.9,665.3,11.6l651.4-7L5667.6-2998.1z M8124.9-3000.4l4.6-2149h-985.2h-985.2v2139.7c0,1177.6,7,2149,16.2,2155.9c9.3,9.3,449.7,13.9,978.3,11.6l964.4-7L8124.9-3000.4z"/></g></g>
</svg>