<svg version="1.2" xmlns="http://www.w3.org/2000/svg" viewBox="0 0 256 256" width="250" height="250">
	<title>instagram-like-3507-svg</title>
	<style>
		.s0 { fill: #000000 } 
		.s1 { fill: #ffffff } 
	</style>
	<g id="Layer">
		<g id="Layer">
			<path id="Layer" class="s0" d="m254 61.2v100.6c0 19.8-16 35.8-35.7 35.8h-46.9l-43.4 43.4-43.4-43.4h-46.9c-19.7 0-35.7-16-35.7-35.8v-100.6c0-19.7 16-35.7 35.7-35.7h180.6c19.7 0 35.7 16 35.7 35.7z"/>
			<path id="Layer" class="s1" d="m172.9 118.4l-8.3 8.3-36.6 36.6-36.6-36.6-8.3-8.3c-10.1-10.1-10.1-26.5 0-36.6 10.1-10.1 26.5-10.1 36.6 0l8.3 8.3 8.3-8.3c10.1-10.1 26.5-10.1 36.6 0 10.1 10.1 10.1 26.5 0 36.6z"/>
		</g>
	</g>
</svg>