<?xml version="1.0" encoding="iso-8859-1"?>
<!-- Generator: Adobe Illustrator 19.0.0, SVG Export Plug-In . SVG Version: 6.00 Build 0)  -->
<svg version="1.1" id="Layer_1" xmlns="http://www.w3.org/2000/svg" xmlns:xlink="http://www.w3.org/1999/xlink" x="0px" y="0px"
	 viewBox="0 0 502.002 502.002" style="enable-background:new 0 0 502.002 502.002;" xml:space="preserve">
<g>
	<g>
		<g>
			<path d="M439.009,368.092c1.671,0,3.365-0.419,4.922-1.302c4.805-2.723,6.492-8.826,3.769-13.631l-56.608-99.871
				c6.56-6.298,11.351-14.979,14.037-25.611c7.038-27.854-1.212-65.282-21.53-97.675c-2.464-3.93-6.375-9.586-11.956-17.293
				c-0.002-0.003-0.004-0.006-0.006-0.009c-17.018-23.499-43.546-57.629-43.813-57.971c-3.391-4.359-9.673-5.146-14.033-1.754
				c-4.359,3.391-5.145,9.673-1.754,14.033c0.208,0.267,16.55,21.292,31.701,41.558h-85.767c-2.161-5.499-3.489-8.921-3.494-8.932
				c-1.999-5.149-7.797-7.699-12.94-5.704c-5.149,1.999-7.702,7.792-5.704,12.941c0,0,2.409,6.206,6.03,15.368
				c0,0.001,0.001,0.002,0.001,0.003c1.545,3.909,3.169,7.999,4.834,12.167c-0.604,1.548-1.515,3.878-2.668,6.811h-85.766
				c15.15-20.264,31.493-41.291,31.701-41.558c3.391-4.36,2.605-10.643-1.755-14.033c-4.357-3.391-10.643-2.605-14.032,1.754
				c-0.267,0.342-26.795,34.472-43.813,57.971c-5.587,7.715-9.5,13.375-11.962,17.301c-20.318,32.395-28.568,69.823-21.53,97.677
				c2.686,10.632,7.478,19.313,14.037,25.611l-68.669,121.15l-27.309-15.479c-4.801-2.723-10.907-1.035-13.63,3.769
				c-2.724,4.805-1.036,10.907,3.769,13.631l72.016,40.819c1.557,0.883,3.251,1.302,4.922,1.302c3.483,0,6.868-1.824,8.708-5.071
				c2.724-4.805,1.036-10.907-3.769-13.631l-27.309-15.478l68.671-121.153c3.798,1.036,7.802,1.573,11.984,1.573
				c5.477,0,11.244-0.892,17.199-2.682c27.514-8.27,55.388-34.574,72.746-68.648c6.01-11.8,17.731-40.516,27.369-64.768
				c5.599,13.515,10.779,25.486,14.155,32.114c17.357,34.074,45.231,60.377,72.745,68.647c5.956,1.79,11.722,2.682,17.199,2.682
				c4.181,0,8.186-0.537,11.984-1.573l56.61,99.874C432.141,366.269,435.526,368.092,439.009,368.092z M212.417,216.967
				c-14.738,28.931-38.558,51.922-60.682,58.572c-6.326,1.901-15.431,3.279-22.896-0.952c-7.464-4.231-10.96-12.751-12.577-19.155
				c-5.659-22.398,1.831-54.645,19.083-82.151c1.755-2.797,4.521-6.844,8.244-12.062h92.508
				C228.026,181.383,217.646,206.702,212.417,216.967z M385.737,222.778c-1.617,6.403-5.113,14.924-12.578,19.155
				c-7.463,4.231-16.569,2.852-22.894,0.951c-22.124-6.65-45.943-29.641-60.682-58.572c-5.229-10.265-15.608-35.583-23.681-55.747
				h92.508c3.722,5.215,6.487,9.261,8.244,12.063C383.906,168.133,391.396,200.379,385.737,222.778z"/>
			<path d="M500.7,362.728c-2.723-4.805-8.827-6.492-13.63-3.769l-72.016,40.82c-4.805,2.724-6.492,8.826-3.769,13.631
				c1.84,3.248,5.225,5.071,8.708,5.071c1.671,0,3.365-0.419,4.922-1.302l72.016-40.82
				C501.736,373.635,503.423,367.532,500.7,362.728z"/>
			<path d="M359.538,174.347c-5.331,1.442-8.483,6.933-7.042,12.264c3.089,11.416,3.322,22.39,0.643,30.109
				c-1.811,5.218,0.95,10.916,6.168,12.727c1.086,0.377,2.191,0.556,3.279,0.556c4.141,0,8.013-2.592,9.447-6.723
				c4.024-11.59,3.942-26.467-0.23-41.891C370.361,176.058,364.87,172.905,359.538,174.347z"/>
			<path d="M358.346,150.961c-1.396-2.227-3.427-5.202-6.208-9.094c-3.211-4.495-9.457-5.536-13.95-2.324
				c-4.493,3.21-5.534,9.456-2.323,13.95c2.51,3.513,4.373,6.236,5.538,8.094c1.898,3.028,5.153,4.688,8.481,4.688
				c1.814,0,3.652-0.494,5.304-1.53C359.867,161.812,361.281,155.64,358.346,150.961z"/>
		</g>
	</g>
</g>
<g>
</g>
<g>
</g>
<g>
</g>
<g>
</g>
<g>
</g>
<g>
</g>
<g>
</g>
<g>
</g>
<g>
</g>
<g>
</g>
<g>
</g>
<g>
</g>
<g>
</g>
<g>
</g>
<g>
</g>
</svg>
