<?xml version="1.0" encoding="utf-8"?>
<!-- Svg Vector Icons : http://www.onlinewebfonts.com/icon -->
<!DOCTYPE svg PUBLIC "-//W3C//DTD SVG 1.1//EN" "http://www.w3.org/Graphics/SVG/1.1/DTD/svg11.dtd">
<svg version="1.1" xmlns="http://www.w3.org/2000/svg" xmlns:xlink="http://www.w3.org/1999/xlink" x="0px" y="0px" viewBox="0 0 1000 1000" enable-background="new 0 0 1000 1000" xml:space="preserve">
<metadata> Svg Vector Icons : http://www.onlinewebfonts.com/icon </metadata>
<g><g transform="translate(0.000000,512.000000) scale(0.100000,-0.100000)"><path d="M4159.6,4977.3c-26.4-36.6-32.5-105.7-32.5-353.8c0-280.6,4.1-313.2,42.7-362c30.5-38.6,61-52.9,109.8-52.9c168.8,0,193.2,54.9,193.2,421c0,357.9-10.2,380.3-166.8,388.4C4206.4,5024.1,4188.1,5018,4159.6,4977.3z"/><path d="M5465.2,4477c-69.1-28.5-482-382.3-504.3-433.2c-71.2-164.7,126.1-290.8,276.6-176.9c199.3,152.5,420.9,353.8,437.2,398.6c26.4,71.2-12.2,160.7-85.4,197.3C5526.2,4495.3,5516.1,4497.4,5465.2,4477z"/><path d="M2982.2,4432.3c-61-46.8-83.4-120-56.9-189.1c10.2-26.4,124.1-132.2,252.2-233.9c183-148.5,246.1-187.1,299-187.1c89.5,0,134.2,28.5,160.6,103.7c32.5,95.6-2,148.5-211.5,319.3C3128.6,4489.2,3081.8,4509.6,2982.2,4432.3z"/><path d="M4045.8,3502.9c-115.9-42.7-278.6-205.4-349.8-353.8l-54.9-113.9l-42.7-1248.6c-22.4-687.4-44.7-1256.8-46.8-1266.9c-4.1-10.2-32.5,26.4-65.1,81.4c-136.3,233.9-319.3,445.4-439.3,508.4c-95.6,48.8-321.3,30.5-467.7-36.6c-327.4-150.5-421-380.3-294.9-738.2c30.5-87.4,91.5-331.5,136.3-538.9c260.3-1205.9,429.1-1590.3,1008.7-2271.6c101.7-120,301-333.5,441.3-471.8l256.2-252.2v-321.3c0-364,18.3-482,107.8-669.1c75.2-160.7,301-396.6,451.5-471.8C4908-4773.9,4952.7-4780,5701.1-4780c404.7,0,732.1,10.2,785,22.4c231.8,52.9,500.3,244,630.4,445.4c36.6,57,89.5,164.7,118,240c46.8,126.1,50.8,172.9,61,573.5l8.2,437.2l79.3,134.2c103.7,174.9,227.8,477.9,315.2,774.8l71.2,237.9l-6.1,1287.3l-6.1,1287.3l-52.9,111.9c-93.6,201.3-272.5,329.4-498.2,357.9c-128.1,14.2-233.9-14.2-333.5-93.6l-73.2-56.9l-22.4,166.7c-28.5,205.4-81.3,329.5-189.1,447.4c-109.8,118-229.8,164.7-427.1,164.7c-124,0-172.9-10.2-260.3-52.9l-107.8-52.9l-26.4,65.1c-42.7,97.6-168.8,229.8-276.6,284.7c-172.9,87.5-357.9,83.4-555.2-10.2c-44.7-22.4-85.4-40.7-89.5-40.7c-4.1,0-6.1,250.1-6.1,555.2c0,512.5-4.1,559.2-42.7,644.7C4668,3435.8,4314.2,3602.6,4045.8,3502.9z M4419.9,3126.7l67.1-67.1l12.2-709.7c8.1-390.5,14.2-880.6,14.2-1090c0-349.8,4.1-384.4,40.7-433.2c52.9-67.1,128.1-83.4,201.3-44.7c77.3,38.6,93.5,93.5,136.3,473.8c24.4,231.8,44.7,323.3,71.2,357.9c91.5,118,335.6,154.6,437.2,67.1c48.8-42.7,56.9-75.2,120-475.9c36.6-235.9,77.3-447.4,89.5-469.8c28.5-54.9,132.2-89.5,193.2-65.1c97.6,36.6,113.9,89.5,113.9,378.3c0,262.3,2,268.4,52.9,321.3c46.8,44.7,71.2,52.9,181,52.9c134.2,0,209.5-36.6,256.2-126.1c12.2-22.4,34.6-174.9,50.8-337.6c18.3-164.7,46.8-390.5,65.1-502.3l34.6-203.4l117.9,8.1c205.4,12.2,225.7,22.4,242,130.1c18.3,132.2,71.2,286.7,120,347.8c73.2,93.6,252.2,59,341.7-67.1c42.7-59,42.7-75.2,42.7-1321.8v-1262.9l-73.2-229.8c-99.6-307.1-205.4-547.1-309.1-699.6l-85.4-126.1v-445.4c0-390.5-6.1-463.7-40.7-579.6c-54.9-174.9-176.9-311.1-349.8-392.5l-128.1-59l-642.6-6.1c-675.2-8.1-811.4,4.1-966,79.3c-113.9,54.9-235.9,176.9-294.9,298.9c-44.7,89.5-48.8,122-54.9,522.6c-2,235.9-8.1,447.4-14.2,469.8c-6.1,24.4-75.2,105.8-156.6,183c-545,510.4-949.7,1004.6-1144.9,1391c-136.3,272.5-272.5,734.2-427.1,1464.2c-30.5,140.3-81.3,337.6-113.9,439.3c-67.1,213.5-71.2,264.4-26.4,331.5c38.6,52.9,144.4,103.7,221.7,103.7c124.1,0,400.6-360,512.5-663c26.4-75.2,67.1-254.2,89.5-398.6c44.7-296.9,81.3-406.7,156.6-463.7c101.7-81.3,252.2-34.6,276.6,85.4c6.1,26.4,34.6,797.2,63,1714.3c26.4,917.2,54.9,1716.4,59,1773.3c16.3,187.1,128.1,309.1,284.7,311.1C4340.6,3191.8,4365,3181.6,4419.9,3126.7z"/><path d="M2998.4,3212.1c-134.2-32.5-264.4-65.1-288.8-71.2c-63-14.2-113.9-120-97.6-195.2c16.3-73.2,81.3-120,164.7-120c124.1,0,591.8,122,630.4,164.7c56.9,63,48.8,176.9-20.3,233.9C3317.7,3285.3,3299.4,3283.3,2998.4,3212.1z"/><path d="M5235.4,3248.7c-136.3-77.3-111.8-276.6,36.6-311.1c24.4-6.1,142.4-32.5,262.3-61c268.4-63,347.7-65.1,402.7-10.2c54.9,54.9,54.9,183,0,233.9c-22.4,20.3-160.6,65.1-319.3,103.7C5302.5,3279.2,5292.4,3281.3,5235.4,3248.7z"/></g></g>
</svg>